<svg xmlns="http://www.w3.org/2000/svg" viewBox="0 0 512 512">
  <rect width="512" height="512" rx="96" fill="#0B1530"/>
  <g transform="translate(64,96) scale(1.9)">
    <g transform="translate(0,18)">
      <g transform="translate(60,0) rotate(8 0 130)">
        <circle cx="0" cy="20" r="10" fill="#FFFFFF"/>
        <path d="M 0,32 C -10,32 -16,36 -16,42 C -16,55 -13,68 -11,82 C -10,100 -12,118 -14,130 L 14,130 C 12,118 10,100 11,82 C 13,68 16,55 16,42 C 16,36 10,32 0,32 Z" fill="#FFFFFF"/>
      </g>
      <g transform="translate(100,0)">
        <circle cx="0" cy="10" r="11" fill="#C9A14A"/>
        <path d="M 0,22 C -11,22 -17,26 -17,34 C -17,52 -14,70 -12,86 C -11,108 -13,122 -15,132 L 15,132 C 13,122 11,108 12,86 C 14,70 17,52 17,34 C 17,26 11,22 0,22 Z" fill="#C9A14A"/>
      </g>
      <g transform="translate(140,0) rotate(-8 0 130)">
        <circle cx="0" cy="20" r="10" fill="#C2734D"/>
        <path d="M 0,32 C -10,32 -16,36 -16,42 C -16,55 -13,68 -11,82 C -10,100 -12,118 -14,130 L 14,130 C 12,118 10,100 11,82 C 13,68 16,55 16,42 C 16,36 10,32 0,32 Z" fill="#C2734D"/>
      </g>
    </g>
  </g>
</svg>
